<svg xmlns="http://www.w3.org/2000/svg" width="340" height="74" viewBox="0 0 340 74" font-family="'Courier New',monospace">
  <clipPath id="clip0"><rect x="0" y="0" width="340" height="14"/></clipPath>
  <clipPath id="clip60"><rect x="0" y="60" width="340" height="14"/></clipPath>
  <g clip-path="url(#clip0)"><rect x="-28" y="0" width="408" height="14" fill="#FFD800"/><g><animateTransform attributeName="transform" type="translate" values="0 0;-28 0" dur="0.7s" repeatCount="indefinite"/><polygon points="-28,14 -14,0 0,0 -14,14" fill="#111"/><polygon points="0,14 14,0 28,0 14,14" fill="#111"/><polygon points="28,14 42,0 56,0 42,14" fill="#111"/><polygon points="56,14 70,0 84,0 70,14" fill="#111"/><polygon points="84,14 98,0 112,0 98,14" fill="#111"/><polygon points="112,14 126,0 140,0 126,14" fill="#111"/><polygon points="140,14 154,0 168,0 154,14" fill="#111"/><polygon points="168,14 182,0 196,0 182,14" fill="#111"/><polygon points="196,14 210,0 224,0 210,14" fill="#111"/><polygon points="224,14 238,0 252,0 238,14" fill="#111"/><polygon points="252,14 266,0 280,0 266,14" fill="#111"/><polygon points="280,14 294,0 308,0 294,14" fill="#111"/><polygon points="308,14 322,0 336,0 322,14" fill="#111"/><polygon points="336,14 350,0 364,0 350,14" fill="#111"/><polygon points="364,14 378,0 392,0 378,14" fill="#111"/></g></g>
  <rect x="0" y="16" width="340" height="42" fill="#111"/>
  <rect x="3" y="19" width="334" height="36" fill="none" stroke="#FFD800" stroke-width="1.5"/>
  <text x="170" y="43" fill="#FFD800" font-size="19" font-weight="bold" text-anchor="middle" letter-spacing="2">UNDER CONSTRUCTION</text>
  <g clip-path="url(#clip60)"><rect x="-28" y="60" width="408" height="14" fill="#FFD800"/><g><animateTransform attributeName="transform" type="translate" values="-28 0;0 0" dur="0.7s" repeatCount="indefinite"/><polygon points="-28,74 -14,60 0,60 -14,74" fill="#111"/><polygon points="0,74 14,60 28,60 14,74" fill="#111"/><polygon points="28,74 42,60 56,60 42,74" fill="#111"/><polygon points="56,74 70,60 84,60 70,74" fill="#111"/><polygon points="84,74 98,60 112,60 98,74" fill="#111"/><polygon points="112,74 126,60 140,60 126,74" fill="#111"/><polygon points="140,74 154,60 168,60 154,74" fill="#111"/><polygon points="168,74 182,60 196,60 182,74" fill="#111"/><polygon points="196,74 210,60 224,60 210,74" fill="#111"/><polygon points="224,74 238,60 252,60 238,74" fill="#111"/><polygon points="252,74 266,60 280,60 266,74" fill="#111"/><polygon points="280,74 294,60 308,60 294,74" fill="#111"/><polygon points="308,74 322,60 336,60 322,74" fill="#111"/><polygon points="336,74 350,60 364,60 350,74" fill="#111"/><polygon points="364,74 378,60 392,60 378,74" fill="#111"/></g></g>
</svg>